<svg width="32" height="32" viewBox="0 0 32 32" fill="none" xmlns="http://www.w3.org/2000/svg">
<g clip-path="url(#clip0_550_634)">
<path d="M15.9997 30.8569C24.2051 30.8569 30.8569 24.2051 30.8569 15.9997C30.8569 7.79435 24.2051 1.14258 15.9997 1.14258C7.79435 1.14258 1.14258 7.79435 1.14258 15.9997C1.14258 24.2051 7.79435 30.8569 15.9997 30.8569Z" stroke="white" stroke-linecap="round" stroke-linejoin="round"/>
<path d="M1.14258 16H30.8569" stroke="white" stroke-linecap="round" stroke-linejoin="round"/>
<path d="M21.7137 15.9997C21.433 21.4328 19.4319 26.6359 15.9994 30.8569C12.567 26.6359 10.5658 21.4328 10.2852 15.9997C10.5658 10.5666 12.567 5.3635 15.9994 1.14258C19.4319 5.3635 21.433 10.5666 21.7137 15.9997V15.9997Z" stroke="white" stroke-linecap="round" stroke-linejoin="round"/>
</g>
<defs>
<clipPath id="clip0_550_634">
<rect width="32" height="32" fill="white"/>
</clipPath>
</defs>
</svg>
