<svg width="498" height="504" viewBox="0 0 498 504" fill="none" xmlns="http://www.w3.org/2000/svg">
<g clip-path="url(#clip0_547_619)">
<path d="M249.124 4.78235L249 4.71094L248.876 4.78235L33.2349 128.532L33.1094 128.604V128.749V376.249V376.394L33.2349 376.466L248.876 500.216L249 500.287L249.124 500.216L464.765 376.466L464.89 376.394V376.249V128.749V128.604L464.765 128.532L249.124 4.78235Z" stroke="#A0FDBE" stroke-width="0.5"/>
<path d="M249 6C250.657 6 252 4.65685 252 3C252 1.34315 250.657 0 249 0C247.343 0 246 1.34315 246 3C246 4.65685 247.343 6 249 6Z" fill="#A0FDBE"/>
<path d="M32 131C33.6569 131 35 129.657 35 128C35 126.343 33.6569 125 32 125C30.3431 125 29 126.343 29 128C29 129.657 30.3431 131 32 131Z" fill="#A0FDBE"/>
<path d="M465 131C466.657 131 468 129.657 468 128C468 126.343 466.657 125 465 125C463.343 125 462 126.343 462 128C462 129.657 463.343 131 465 131Z" fill="#A0FDBE"/>
<path d="M466 379C467.657 379 469 377.657 469 376C469 374.343 467.657 373 466 373C464.343 373 463 374.343 463 376C463 377.657 464.343 379 466 379Z" fill="#A0FDBE"/>
<path d="M249 504C250.657 504 252 502.657 252 501C252 499.343 250.657 498 249 498C247.343 498 246 499.343 246 501C246 502.657 247.343 504 249 504Z" fill="#A0FDBE"/>
<path d="M32 380C33.6569 380 35 378.657 35 377C35 375.343 33.6569 374 32 374C30.3431 374 29 375.343 29 377C29 378.657 30.3431 380 32 380Z" fill="#A0FDBE"/>
<g filter="url(#filter0_f_547_619)">
<path d="M253.014 6.07141L252.89 6L252.766 6.07141L37.1255 129.821L37 129.893V130.038V377.538V377.683L37.1255 377.755L252.766 501.505L252.89 501.576L253.014 501.505L468.655 377.755L468.78 377.683V377.538V130.038V129.893L468.655 129.821L253.014 6.07141Z" stroke="#A0FDBE" stroke-width="2"/>
</g>
</g>
<defs>
<filter id="filter0_f_547_619" x="16" y="-15.1543" width="473.781" height="537.883" filterUnits="userSpaceOnUse" color-interpolation-filters="sRGB">
<feFlood flood-opacity="0" result="BackgroundImageFix"/>
<feBlend mode="normal" in="SourceGraphic" in2="BackgroundImageFix" result="shape"/>
<feGaussianBlur stdDeviation="10" result="effect1_foregroundBlur_547_619"/>
</filter>
<clipPath id="clip0_547_619">
<rect width="498" height="504" fill="white"/>
</clipPath>
</defs>
</svg>
