<svg width="48" height="48" viewBox="0 0 48 48" fill="none" xmlns="http://www.w3.org/2000/svg">
<path d="M35.7447 0H12.2553C5.48689 0 0 5.48689 0 12.2553V35.7447C0 42.5132 5.48689 48 12.2553 48H35.7447C42.5131 48 48 42.5132 48 35.7447V12.2553C48 5.48689 42.5131 0 35.7447 0Z" fill="url(#paint0_linear_430_8844)"/>
<path d="M26.7079 3.07972L44.9307 21.3025C46.4264 22.7981 46.4264 25.2231 44.9307 26.7186L26.708 44.9415C25.2123 46.4371 22.7874 46.4371 21.2918 44.9415L3.06898 26.7187C1.57336 25.223 1.57336 22.7981 3.06898 21.3026L21.2917 3.07972C22.7874 1.5841 25.2123 1.5841 26.7079 3.07972Z" stroke="white" stroke-width="0.5"/>
<path d="M32.6964 14.9978C36.9335 12.4924 39.3035 7.54691 38.6253 2.625C28.6788 9.42211 21.2172 19.8577 17.8106 31.2223C20.0268 26.7966 25.0656 17.411 31.581 10.6849C31.581 10.6849 31.5489 10.7348 31.4879 10.8293C31.4293 10.8589 31.3657 10.9108 31.3073 10.9835C31.3073 10.9835 31.0361 11.3272 30.5618 11.9281C30.3264 12.2305 30.0403 12.5975 29.7127 13.0182C29.3822 13.4371 29.0214 13.9195 28.6393 14.454C28.2548 14.9874 27.8382 15.5647 27.3977 16.1754C26.9579 16.7872 26.5265 17.4551 26.0677 18.1371C25.8396 18.4792 25.6075 18.827 25.3727 19.1788C25.1493 19.538 24.9229 19.9018 24.6951 20.2682C24.248 21.0068 23.763 21.7393 23.3339 22.5043C22.8965 23.2641 22.4591 24.0242 22.0287 24.7723C21.6178 25.5307 21.2134 26.2775 20.8223 26.9996C20.4265 27.7197 20.0653 28.4267 19.7231 29.097C19.3818 29.7673 19.0592 30.4018 18.7612 30.987C17.5892 33.3375 16.8483 34.9241 16.8483 34.9241C16.7743 35.0811 16.7656 35.2376 16.8323 35.2891C16.9069 35.3463 17.0473 35.2524 17.1457 35.0791C17.1457 35.0791 17.8923 33.7573 19.0099 31.7182C23.8019 32.648 28.9977 30.5544 31.2059 27.0911C29.7787 27.3487 28.3516 27.6063 26.9244 27.8638C30.604 27.1023 33.522 24.2169 34.1757 20.693C33.4459 20.8415 32.7161 20.9896 31.9863 21.1377C33.1626 18.6711 34.3392 16.2044 35.5158 13.7377C34.576 14.1579 33.6362 14.5776 32.6964 14.9978Z" fill="white"/>
<defs>
<linearGradient id="paint0_linear_430_8844" x1="2.18181" y1="2.7" x2="47.7613" y2="40.3689" gradientUnits="userSpaceOnUse">
<stop stop-color="#143791"/>
<stop offset="0.139583" stop-color="#143791"/>
<stop offset="0.525" stop-color="#1C5D47"/>
</linearGradient>
</defs>
</svg>
