<svg width="148" height="48" viewBox="0 0 148 48" fill="none" xmlns="http://www.w3.org/2000/svg">
<g clip-path="url(#clip0_430_8848)">
<path d="M35.7447 0H12.2553C5.48689 0 0 5.48689 0 12.2553V35.7447C0 42.5132 5.48689 48 12.2553 48H35.7447C42.5131 48 48 42.5132 48 35.7447V12.2553C48 5.48689 42.5131 0 35.7447 0Z" fill="url(#paint0_linear_430_8848)"/>
<path d="M26.7079 3.07972L44.9307 21.3025C46.4264 22.7981 46.4264 25.2231 44.9307 26.7186L26.708 44.9415C25.2123 46.4371 22.7874 46.4371 21.2918 44.9415L3.06898 26.7187C1.57336 25.2231 1.57336 22.7981 3.06898 21.3026L21.2917 3.07972C22.7874 1.5841 25.2123 1.5841 26.7079 3.07972Z" stroke="white" stroke-width="0.5"/>
<path d="M32.6964 14.9978C36.9336 12.4924 39.3036 7.54692 38.6253 2.625C28.6788 9.42212 21.2173 19.8578 17.8106 31.2223C20.0269 26.7966 25.0656 17.411 31.5811 10.685C31.5811 10.685 31.5489 10.7348 31.4879 10.8294C31.4293 10.859 31.3657 10.9109 31.3074 10.9836C31.3074 10.9836 31.0361 11.3272 30.5618 11.9282C30.3264 12.2306 30.0404 12.5975 29.7127 13.0183C29.3823 13.4371 29.0214 13.9196 28.6393 14.4541C28.2549 14.9874 27.8382 15.5647 27.3977 16.1755C26.958 16.7872 26.5266 17.4551 26.0677 18.1371C25.8397 18.4793 25.6075 18.827 25.3727 19.1788C25.1494 19.538 24.923 19.9019 24.6951 20.2682C24.248 21.0068 23.763 21.7394 23.334 22.5043C22.8965 23.2641 22.4591 24.0243 22.0288 24.7724C21.6178 25.5308 21.2135 26.2775 20.8223 26.9997C20.4265 27.7198 20.0654 28.4267 19.7231 29.0971C19.3818 29.7673 19.0592 30.4019 18.7612 30.987C17.5893 33.3375 16.8483 34.9242 16.8483 34.9242C16.7743 35.0811 16.7656 35.2376 16.8323 35.2892C16.907 35.3464 17.0473 35.2524 17.1457 35.0791C17.1457 35.0791 17.8923 33.7574 19.01 31.7183C23.8019 32.6481 28.9978 30.5544 31.206 27.0912C29.7787 27.3487 28.3516 27.6063 26.9245 27.8639C30.604 27.1023 33.522 24.2169 34.1757 20.6931C33.4459 20.8416 32.7161 20.9897 31.9863 21.1377C33.1626 18.6712 34.3392 16.2045 35.5158 13.7378C34.5761 14.1579 33.6362 14.5777 32.6964 14.9978Z" fill="white"/>
<path d="M108 27H110.446V41.619H118.936V43.6429H108V27ZM122.507 29.9762C122.107 29.9762 121.772 29.8413 121.5 29.5714C121.228 29.3016 121.092 28.9683 121.092 28.5714C121.092 28.1746 121.228 27.8413 121.5 27.5714C121.772 27.3016 122.107 27.1667 122.507 27.1667C122.923 27.1667 123.267 27.3016 123.538 27.5714C123.826 27.8413 123.97 28.1746 123.97 28.5714C123.97 28.9683 123.826 29.3016 123.538 29.5714C123.267 29.8413 122.923 29.9762 122.507 29.9762ZM121.284 32.2143H123.754V43.6429H121.284V32.2143ZM131.524 44C130.357 44 129.454 43.6667 128.814 43C128.191 42.3333 127.879 41.3889 127.879 40.1667V34.0714H126.128V32.2143H127.879V28.7857H130.325V32.2143H133.155V34.0714H130.325V40C130.325 40.7619 130.469 41.3016 130.757 41.619C131.061 41.9365 131.604 42.0952 132.388 42.0952C132.851 42.0952 133.315 41.9921 133.779 41.7857V43.6905C133.171 43.8968 132.42 44 131.524 44ZM142.388 44C140.262 44 138.591 43.4762 137.376 42.4286C136.177 41.3651 135.577 39.873 135.577 37.9524C135.577 36.0794 136.113 34.5952 137.184 33.5C138.271 32.4048 139.814 31.8571 141.813 31.8571C143.14 31.8571 144.267 32.1111 145.194 32.619C146.121 33.1111 146.817 33.8016 147.281 34.6905C147.76 35.5635 148 36.5635 148 37.6905V38.881H137.88C137.96 39.9603 138.415 40.7698 139.247 41.3095C140.094 41.8333 141.237 42.0952 142.676 42.0952C143.411 42.0952 144.155 42.0317 144.906 41.9048C145.658 41.7619 146.321 41.5794 146.897 41.3571V43.2857C146.385 43.4921 145.706 43.6587 144.858 43.7857C144.027 43.9286 143.204 44 142.388 44ZM145.722 37.1905C145.69 36.1111 145.33 35.2778 144.643 34.6905C143.971 34.0873 143.012 33.7857 141.765 33.7857C140.55 33.7857 139.606 34.0952 138.935 34.7143C138.263 35.3333 137.912 36.1587 137.88 37.1905H145.722Z" fill="white"/>
<path d="M61.1056 44C59.2892 44 57.688 43.658 56.3018 42.9739C54.9316 42.2899 53.8721 41.3105 53.1233 40.0357C52.3744 38.7453 52 37.2373 52 35.5117C52 33.786 52.3744 32.2858 53.1233 31.011C53.8721 29.7206 54.9316 28.7334 56.3018 28.0494C57.688 27.3498 59.2892 27 61.1056 27C62.3005 27 63.368 27.1166 64.3081 27.3498C65.2481 27.583 66.1164 27.9483 66.9131 28.4458V32.3635C66.212 31.8194 65.4154 31.423 64.5232 31.1742C63.6469 30.9255 62.6351 30.8011 61.488 30.8011C59.8469 30.8011 58.5802 31.2209 57.688 32.0604C56.7958 32.8843 56.3496 34.0348 56.3496 35.5117C56.3496 36.9886 56.7958 38.1468 57.688 38.9863C58.5962 39.8258 59.8628 40.2455 61.488 40.2455C62.6351 40.2455 63.6628 40.1134 64.571 39.8491C65.4791 39.5848 66.3236 39.1651 67.1043 38.5898V42.4842C65.5907 43.4947 63.5911 44 61.1056 44ZM68.7686 27.3498H76.273C78.2327 27.3498 79.7622 27.8317 80.8616 28.7956C81.9769 29.7595 82.5345 31.1431 82.5345 32.9465C82.5345 34.1591 82.2637 35.193 81.722 36.048C81.1803 36.9031 80.4155 37.5405 79.4277 37.9602L82.3912 43.6502H78.0415L75.3887 38.5432H72.9988V43.6502H68.7686V27.3498ZM75.5321 35.0686C76.3765 35.0686 77.0298 34.9131 77.4918 34.6022C77.9539 34.2757 78.1849 33.7238 78.1849 32.9465C78.1849 32.1381 77.9539 31.5862 77.4918 31.2908C77.0457 30.9799 76.3925 30.8244 75.5321 30.8244H72.9988V35.0686H75.5321ZM84.219 27.3498H88.2819L93.1095 37.4472L97.961 27.3498H102V43.6502H98.0566V35.465L94.0655 43.6502H92.1536L88.1863 35.465V43.6502H84.219V27.3498Z" fill="white"/>
</g>
<defs>
<linearGradient id="paint0_linear_430_8848" x1="2.18181" y1="2.7" x2="47.7613" y2="40.3689" gradientUnits="userSpaceOnUse">
<stop stop-color="#143791"/>
<stop offset="0.139583" stop-color="#143791"/>
<stop offset="0.525" stop-color="#1C5D47"/>
</linearGradient>
<clipPath id="clip0_430_8848">
<rect width="148" height="48" fill="white"/>
</clipPath>
</defs>
</svg>
