<svg width="46" height="33" viewBox="0 0 46 33" fill="none" xmlns="http://www.w3.org/2000/svg">
<path d="M0.273808 0C3.46095 0 6.47286 0.724629 9.09048 2.00742V0.244807C9.09048 0.107715 9.21095 0 9.36428 0C12.5514 0 15.5633 0.724629 18.181 2.00742V0.244807C18.181 0.107715 18.3014 0 18.4548 0C21.6419 0 24.6538 0.724629 27.2714 2.00742V0.244807C27.2714 0.107715 27.3919 0 27.5452 0C37.72 0 46 7.40297 46 16.5C46 25.597 37.72 33 27.5452 33C27.3919 33 27.2714 32.8923 27.2714 32.7552V30.9926C24.6538 32.2754 21.6419 33 18.4548 33C18.3014 33 18.181 32.8923 18.181 32.7552V30.9926C15.5633 32.2754 12.5514 33 9.36428 33C9.21095 33 9.09048 32.8923 9.09048 32.7552V30.9926C6.47286 32.2754 3.46095 33 0.273808 33C0.120476 33 0 32.8923 0 32.7552V0.244807C0 0.107715 0.120476 0 0.273808 0ZM9.6381 0.489614V2.2816C13.8329 4.50445 16.9762 8.16677 18.181 12.5047V2.56558C15.651 1.28279 12.7376 0.528783 9.6381 0.489614ZM18.7286 30.1407C23.8543 27.3205 27.2714 22.2579 27.2714 16.5C27.2714 10.7421 23.8543 5.67952 18.7286 2.85935V30.1407ZM27.819 30.1407C32.9448 27.3205 36.3619 22.2579 36.3619 16.5C36.3619 10.7421 32.9448 5.67952 27.819 2.85935V30.1407ZM9.6381 2.85935V30.1407C14.7638 27.3205 18.181 22.2579 18.181 16.5C18.181 10.7421 14.7638 5.67952 9.6381 2.85935ZM18.7286 0.489614V2.2816C22.9233 4.50445 26.0667 8.16677 27.2714 12.5047V2.56558C24.7414 1.28279 21.8281 0.528783 18.7286 0.489614ZM27.819 32.5104C37.5667 32.3733 45.4524 25.2445 45.4524 16.5C45.4524 7.75549 37.5667 0.626706 27.819 0.489614V2.2816C33.2514 5.16053 36.9095 10.4484 36.9095 16.4902C36.9095 22.532 33.2514 27.8297 27.819 30.6988V32.5104ZM18.7286 32.5104C21.8281 32.4712 24.7414 31.7172 27.2714 30.4344V20.4953C26.0557 24.8332 22.9233 28.4956 18.7286 30.7184V32.5104ZM9.6381 32.5104C12.7376 32.4712 15.651 31.7172 18.181 30.4344V20.4953C16.9652 24.8332 13.8329 28.4956 9.6381 30.7184V32.5104ZM0.547619 32.5104C3.64714 32.4712 6.56047 31.7172 9.09048 30.4344V2.56558C6.56047 1.28279 3.64714 0.528783 0.547619 0.489614V32.5104Z" fill="#A0FDBE"/>
</svg>
