<svg width="46" height="36" viewBox="0 0 46 36" fill="none" xmlns="http://www.w3.org/2000/svg">
<path d="M27.5118 35.922C27.568 35.9708 27.6355 36 27.7143 36C27.7931 36 27.8606 35.9708 27.9168 35.922L28.1981 35.6783C29.8522 34.2158 31.27 32.6169 32.4515 30.901C33.633 32.6169 35.0508 34.2158 36.7048 35.6783L36.9862 35.922C37.0424 35.9708 37.1099 36 37.1887 36C37.2675 36 37.335 35.9708 37.3912 35.922L37.6725 35.6783C43.0961 30.8815 46.0555 24.5346 45.9992 17.8269C45.943 11.1095 42.8936 4.81137 37.3912 0.0731212C37.2787 -0.0243737 37.1099 -0.0243737 36.9974 0.0731212C35.2308 1.59404 33.7118 3.2807 32.4627 5.09411C31.2137 3.2807 29.7059 1.59404 27.9281 0.0731212C27.8156 -0.0243737 27.6468 -0.0243737 27.5343 0.0731212C25.7677 1.59404 24.2486 3.2807 22.9996 5.09411C21.7506 3.2807 20.2428 1.59404 18.4649 0.0731212C18.3524 -0.0243737 18.1836 -0.0243737 18.0711 0.0731212C16.3045 1.59404 14.7855 3.2807 13.5365 5.09411C12.2875 3.2807 10.7797 1.59404 9.0018 0.0731212C8.88928 -0.0243737 8.7205 -0.0243737 8.60798 0.0731212C3.10562 4.81137 0.0562592 11.1095 0 17.8269C0 17.8854 0 17.9439 0 18.0024C0 24.6516 2.94809 30.9205 8.32667 35.6783L8.60798 35.922C8.66423 35.9708 8.73175 36 8.81051 36C8.88928 36 8.95679 35.9708 9.01305 35.922L9.29436 35.6783C10.9484 34.2158 12.3662 32.6169 13.5477 30.901C14.7292 32.6169 16.147 34.2158 17.8011 35.6783L18.0824 35.922C18.1386 35.9708 18.2061 36 18.2849 36C18.3637 36 18.4312 35.9708 18.4874 35.922L18.7688 35.6783C20.4228 34.2158 21.8406 32.6169 23.0221 30.901C24.2036 32.6169 25.6214 34.2158 27.2755 35.6783L27.5118 35.922ZM37.1774 0.580095C42.4435 5.20135 45.3691 11.3143 45.4141 17.8172C45.4141 17.8757 45.4141 17.9342 45.4141 17.9927C45.4141 24.5151 42.5223 30.667 37.245 35.3273L37.1662 35.3955L37.0874 35.3273C35.3883 33.8259 33.948 32.1782 32.7553 30.4038C35.2421 26.6015 36.5473 22.2922 36.5023 17.8074C36.4686 13.4494 35.1633 9.25714 32.7553 5.56209C33.9706 3.77793 35.4446 2.10102 37.1774 0.580095ZM32.4402 29.9163C30.111 26.2505 28.8958 22.1167 28.9295 17.8269C28.9633 13.6542 30.1785 9.63737 32.4402 6.07881C34.7019 9.63737 35.9172 13.6542 35.9509 17.8269C35.9509 17.8854 35.9509 17.9439 35.9509 18.0024C35.9622 22.224 34.7357 26.2993 32.4402 29.9163ZM8.87803 35.3273L8.79926 35.3955L8.7205 35.3273C3.39818 30.6183 0.506351 24.4079 0.551361 17.8172C0.60762 11.3143 3.52195 5.20135 8.78801 0.580095C10.5096 2.09127 11.9837 3.76818 13.1876 5.57184C10.7684 9.26689 9.4744 13.4592 9.44064 17.8172C9.44064 17.8757 9.44064 17.9342 9.44064 17.9927C9.44064 22.4092 10.7459 26.66 13.1876 30.4038C12.0174 32.1782 10.5771 33.8356 8.87803 35.3273ZM13.5252 6.06906C15.7869 9.62762 17.0022 13.6444 17.0359 17.8172C17.0359 17.8757 17.0359 17.9342 17.0359 17.9927C17.0359 22.224 15.8207 26.2993 13.5252 29.9066C11.196 26.2408 9.98075 22.107 10.0145 17.8172C10.0483 13.6444 11.2748 9.62762 13.5252 6.06906ZM18.3412 35.3273L18.2624 35.3955L18.1836 35.3273C16.4845 33.8259 15.0443 32.1782 13.8515 30.4038C16.3045 26.6502 17.5985 22.4092 17.5985 17.9927C17.5985 17.9342 17.5985 17.8757 17.5985 17.8172C17.5648 13.4592 16.2595 9.26689 13.8515 5.57184C15.0555 3.77793 16.5296 2.10102 18.2624 0.580095C19.984 2.09127 21.458 3.76818 22.662 5.57184C20.2428 9.26689 18.9488 13.4592 18.915 17.8172C18.915 17.8757 18.915 17.9342 18.915 17.9927C18.915 22.4092 20.2203 26.66 22.662 30.4038C21.4806 32.1782 20.029 33.8356 18.3412 35.3273ZM22.9884 6.06906C25.2501 9.62762 26.4653 13.6444 26.4991 17.8172C26.4991 17.8757 26.4991 17.9342 26.4991 17.9927C26.4991 22.224 25.2838 26.2993 22.9884 29.9066C20.6591 26.2408 19.4439 22.107 19.4776 17.8172C19.5114 13.6444 20.7266 9.62762 22.9884 6.06906ZM27.6355 35.3273C25.9364 33.8259 24.4962 32.1782 23.3034 30.4038C25.7789 26.6015 27.0842 22.2922 27.0504 17.8172C27.0167 13.4592 25.7114 9.26689 23.3034 5.57184C24.5187 3.77793 25.9927 2.10102 27.7143 0.580095C29.4359 2.09127 30.9099 3.76818 32.1139 5.57184C29.6947 9.26689 28.4007 13.4592 28.3669 17.8172C28.3669 17.8757 28.3669 17.9342 28.3669 17.9927C28.3669 22.4092 29.6722 26.66 32.1139 30.4038C30.9324 32.1684 29.4809 33.8259 27.7818 35.3273L27.703 35.3955L27.6355 35.3273Z" fill="#A0FDBE"/>
</svg>
