<svg width="46" height="36" viewBox="0 0 46 36" fill="none" xmlns="http://www.w3.org/2000/svg">
<path d="M45.9075 17.7947L27.7193 0.0691099C27.6473 -0.00719959 27.5342 -0.0181011 27.4417 0.0255043C27.3491 0.0691098 27.2874 0.167222 27.2874 0.276236V8.50676L18.62 0.0691099C18.5481 -0.00719959 18.435 -0.0181011 18.3424 0.0255043C18.2499 0.0691098 18.1882 0.167222 18.1882 0.276236V8.50676L9.53107 0.0691099C9.4591 -0.00719959 9.346 -0.0181011 9.25346 0.0255043C9.16093 0.0691098 9.09924 0.167222 9.09924 0.276236V8.50676L0.431828 0.0691099C0.359857 -0.00719959 0.246759 -0.0181011 0.154224 0.0255043C0.0616898 0.0691098 0 0.167222 0 0.276236V35.7275C0 35.8365 0.0616898 35.9346 0.154224 35.9782C0.185069 35.9891 0.226196 36 0.257041 36C0.31873 36 0.38042 35.9782 0.431828 35.9237L9.09924 27.486V35.7275C9.09924 35.8365 9.16093 35.9346 9.25346 35.9782C9.28431 35.9891 9.32544 36 9.35628 36C9.41797 36 9.47966 35.9782 9.53107 35.9237L18.1985 27.486V35.7275C18.1985 35.8365 18.2602 35.9346 18.3527 35.9782C18.3835 35.9891 18.4247 36 18.4555 36C18.5172 36 18.5789 35.9782 18.6303 35.9237L27.2977 27.486V35.7275C27.2977 35.8365 27.3594 35.9346 27.4519 35.9782C27.4828 35.9891 27.5239 36 27.5548 36C27.6164 36 27.6781 35.9782 27.7295 35.9237L45.9177 18.1981C45.9692 18.1436 46 18.0782 46 18.0019C46 17.9255 45.9692 17.8383 45.9075 17.7947ZM18.7126 0.886712L27.2977 9.24806V17.3696L18.7126 9.00823V0.886712ZM27.8015 9.74952L36.2633 17.9909L27.8015 26.2324V9.74952ZM18.7126 9.74952L27.1743 17.9909L18.7126 26.2324V9.74952ZM9.61332 0.886712L18.1985 9.24806V17.3696L9.61332 9.00823V0.886712ZM18.0751 17.9909L9.61332 26.2324V9.74952L18.0751 17.9909ZM0.524363 35.0952V0.886712L9.10952 9.24806V26.7338L0.524363 35.0952ZM9.61332 35.0952V26.9737L18.1985 18.6123V26.7338L9.61332 35.0952ZM18.7126 35.0952V26.9737L27.2977 18.6123V26.7338L18.7126 35.0952ZM27.8015 35.0952V26.9737L36.8185 18.1872C36.8699 18.1327 36.9008 18.0673 36.9008 17.9909C36.9008 17.9146 36.8699 17.8383 36.8185 17.7947L27.8015 9.00823V0.886712L45.3625 17.9909L27.8015 35.0952Z" fill="#A0FDBE"/>
</svg>
