<svg width="47" height="37" viewBox="0 0 47 37" fill="none" xmlns="http://www.w3.org/2000/svg">
<path d="M45.6318 10.0278C45.6318 10.0187 45.6318 10.0187 45.6318 10.0095C44.3558 6.30943 41.3528 2.95523 37.1598 0.544935C37.0768 0.497335 36.9598 0.494734 36.8738 0.538534C36.7878 0.582434 36.7328 0.672738 36.7518 0.764738C36.9268 1.95894 36.6978 3.18073 36.4698 4.35683C36.4368 4.41103 36.4028 4.50184 36.3468 4.63794C36.1898 5.00984 36.0228 5.37233 35.8338 5.72523C34.2878 3.67623 32.1628 1.85244 29.5948 0.375837C29.5118 0.328237 29.3948 0.325636 29.3088 0.369436C29.2228 0.413336 29.1678 0.503632 29.1868 0.595632C29.3618 1.78983 29.1328 3.01163 28.9048 4.18773C28.8718 4.24193 28.8378 4.33273 28.7818 4.46883C28.6248 4.84073 28.4578 5.20323 28.2698 5.55613C26.7228 3.50713 24.5978 1.68333 22.0308 0.206731C21.9468 0.159131 21.8298 0.156538 21.7438 0.200338C21.6578 0.244238 21.6028 0.334534 21.6218 0.426534C21.7968 1.62073 21.5678 2.84254 21.3398 4.01864C21.3068 4.07284 21.2728 4.16363 21.2168 4.29973C21.0598 4.67163 20.8928 5.03414 20.7048 5.38694C19.1578 3.33804 17.0328 1.51423 14.4658 0.0376335C14.3818 -0.0100665 14.2648 -0.0126676 14.1788 0.0312324C14.0928 0.0751324 14.0378 0.165436 14.0568 0.257436C14.2318 1.45164 14.0028 2.67343 13.7748 3.84953C13.7418 3.90373 13.7088 3.99454 13.6518 4.13064C12.3858 7.10554 10.4888 9.35213 8.01478 10.8167C5.08878 12.5459 2.80878 14.8024 1.43578 17.3624C-0.0372155 20.0954 -0.390225 23.0354 0.438775 25.8554C1.68778 29.8394 4.59479 33.2004 9.09979 35.8554C9.14179 35.8844 9.19478 35.8944 9.24778 35.8954C9.29078 35.8964 9.34377 35.8884 9.38677 35.8624C9.47277 35.8184 9.52778 35.7374 9.51878 35.6454C9.36078 33.7194 9.61978 32.0854 10.3338 30.5454C11.8688 32.6124 13.9828 34.4454 16.6648 36.0244C16.7068 36.0534 16.7598 36.0634 16.8128 36.0644C16.8558 36.0654 16.9088 36.0574 16.9518 36.0314C17.0378 35.9874 17.0928 35.9064 17.0838 35.8144C16.9248 33.8884 17.1848 32.2554 17.8988 30.7144C19.4338 32.7814 21.5478 34.6144 24.2298 36.1944C24.2718 36.2224 24.3248 36.2324 24.3778 36.2334C24.4198 36.2344 24.4738 36.2264 24.5168 36.2004C24.6028 36.1564 24.6578 36.0754 24.6488 35.9834C24.4898 34.0574 24.7498 32.4244 25.4638 30.8834C26.9988 32.9504 29.1128 34.7834 31.7948 36.3634C31.8368 36.3914 31.8898 36.4014 31.9428 36.4034C31.9848 36.4044 32.0388 36.3964 32.0818 36.3694C32.1668 36.3254 32.2218 36.2444 32.2138 36.1524C32.0468 34.1344 32.3388 32.4474 33.1288 30.8354C33.7458 29.8144 34.5858 28.7894 35.6068 27.7774C36.6358 26.8484 37.7898 26.0224 38.9008 25.2324C40.0338 24.4334 41.1988 23.5994 42.2498 22.6424C43.3458 21.5864 44.1278 20.2954 44.8778 19.0394C44.9988 18.8404 45.1208 18.6414 45.2418 18.4424C45.2418 18.4334 45.2528 18.4344 45.2528 18.4244C46.3768 16.0874 46.5018 13.3435 45.6318 10.0278ZM29.2768 4.63553C29.3328 4.51773 29.3778 4.39973 29.3998 4.37273C29.4108 4.35463 29.4218 4.32743 29.4228 4.30003C29.6268 3.23333 29.8318 2.13914 29.7608 1.02964C32.1598 2.47504 34.1368 4.24973 35.5688 6.21374C34.3738 8.35703 32.7978 10.0339 30.8498 11.2265C30.7648 10.7302 30.6488 10.2148 30.5118 9.68993C30.5128 9.68073 30.5128 9.68074 30.5128 9.67164C30.0738 8.40744 29.4428 7.17553 28.6198 6.01263C28.8528 5.57833 29.0758 5.11633 29.2768 4.63553ZM17.0488 17.8954C18.3008 15.5794 20.3108 13.5088 22.8948 11.8727C23.1848 14.1044 22.9188 16.0114 22.0738 17.7324C21.9528 17.9224 21.8418 18.1214 21.7208 18.3194C20.9828 19.5484 20.2218 20.8224 19.1798 21.8244C18.1508 22.7634 16.9968 23.5794 15.8858 24.3694C15.8428 24.3964 15.7988 24.4324 15.7558 24.4584C15.4658 22.2634 15.8978 20.0114 17.0488 17.8954ZM15.2598 24.8134C14.3318 25.4794 13.3928 26.1824 12.5258 26.9594C12.5258 26.9594 12.5258 26.9684 12.5158 26.9684C11.6358 27.8364 10.8948 28.7264 10.3018 29.6104C9.53078 28.4484 8.93277 27.2084 8.52677 25.9084C7.73777 23.1894 8.06677 20.3584 9.49477 17.7174C10.8348 15.2384 13.0498 13.0352 15.8898 11.359C17.9008 10.1771 19.5418 8.49243 20.7898 6.34113C21.4978 7.39163 22.0578 8.49374 22.4468 9.61944C22.6028 10.2181 22.7278 10.7886 22.8218 11.3492C20.0558 13.0453 17.8948 15.2314 16.5658 17.6914C15.3248 19.9894 14.8888 22.4244 15.2598 24.8134ZM16.2068 24.7344C17.3278 23.9354 18.5038 23.1004 19.5548 22.1444C20.6508 21.0884 21.4328 19.7964 22.1828 18.5404C22.3048 18.3424 22.4258 18.1434 22.5468 17.9444C22.5468 17.9354 22.5578 17.9354 22.5578 17.9264C23.4588 16.0884 23.7388 13.9974 23.3788 11.5722C23.4008 11.5636 23.4228 11.5457 23.4438 11.537C25.4548 10.3551 27.0958 8.67043 28.3438 6.51913C29.0528 7.56963 29.6118 8.67174 30.0008 9.79744C30.1568 10.3961 30.2818 10.9666 30.3758 11.5272C27.6098 13.2234 25.4488 15.4094 24.1198 17.8704C22.8798 20.1584 22.4428 22.5934 22.8138 24.9824C21.8858 25.6484 20.9468 26.3504 20.0808 27.1284C20.0808 27.1284 20.0798 27.1374 20.0698 27.1374C19.1908 28.0054 18.4488 28.8954 17.8558 29.7794C17.0858 28.6174 16.4868 27.3774 16.0808 26.0774C15.9718 25.7174 15.8948 25.3594 15.8288 25.0004C15.9578 24.9114 16.0878 24.8234 16.2068 24.7344ZM24.6038 18.0634C25.8548 15.7474 27.8648 13.6777 30.4488 12.0416C30.7388 14.2734 30.4738 16.1804 29.6278 17.9014C29.5068 18.0914 29.3968 18.2904 29.2758 18.4884C28.5368 19.7174 27.7758 20.9914 26.7338 21.9934C25.7048 22.9324 24.5508 23.7484 23.4398 24.5384C23.3968 24.5654 23.3538 24.6014 23.3108 24.6274C23.0198 22.4324 23.4628 20.1814 24.6038 18.0634ZM23.7608 24.9034C24.8828 24.1044 26.0578 23.2694 27.1088 22.3134C28.2048 21.2574 28.9878 19.9654 29.7378 18.7094C29.8588 18.5114 29.9798 18.3124 30.1008 18.1134C30.1008 18.1044 30.1118 18.1044 30.1118 18.0954C31.0128 16.2564 31.2928 14.1664 30.9338 11.7411C30.9548 11.7324 30.9768 11.7146 30.9978 11.7059C33.0098 10.524 34.6498 8.83933 35.8978 6.68803C36.6068 7.73853 37.1658 8.84064 37.5548 9.96634C38.4158 13.2177 38.2948 15.7974 37.1828 18.0704C37.0618 18.2604 36.9508 18.4594 36.8298 18.6574C36.0908 19.8864 35.3298 21.1604 34.2888 22.1624C33.2588 23.1014 32.1048 23.9174 30.9938 24.7074C29.8718 25.5064 28.6968 26.3414 27.6458 27.2884C27.6458 27.2884 27.6458 27.2974 27.6348 27.2974C26.7558 28.1654 26.0138 29.0554 25.4208 29.9394C24.6508 28.7774 24.0518 27.5374 23.6458 26.2374C23.5368 25.8774 23.4598 25.5194 23.3938 25.1604C23.5128 25.0804 23.6418 24.9924 23.7608 24.9034ZM21.7228 4.46663C21.7788 4.34883 21.8238 4.23083 21.8458 4.20383C21.8568 4.18583 21.8678 4.15863 21.8688 4.13113C22.0728 3.06443 22.2778 1.97024 22.2068 0.860838C24.6058 2.30614 26.5828 4.08084 28.0138 6.04484C26.8198 8.18814 25.2428 9.86514 23.2948 11.0576C23.2108 10.5613 23.0948 10.0459 22.9578 9.52103C22.9578 9.51183 22.9578 9.51184 22.9588 9.50274C22.5198 8.23854 21.8888 7.00663 21.0658 5.84373C21.2988 5.40943 21.5208 4.94743 21.7228 4.46663ZM9.96078 30.1244C9.96078 30.1344 9.94978 30.1334 9.94978 30.1434C9.18278 31.7004 8.86978 33.3234 8.96578 35.2114C4.82978 32.6654 2.14178 29.4744 0.97178 25.7394C0.18378 23.0204 0.512774 20.1894 1.94077 17.5484C3.28077 15.0694 5.49578 12.8663 8.33578 11.1901C10.9068 9.67284 12.8688 7.35433 14.1688 4.28863C14.2248 4.17083 14.2698 4.05283 14.2918 4.02583C14.3028 4.00773 14.3138 3.98054 14.3148 3.95314C14.5188 2.88644 14.7238 1.79224 14.6528 0.682737C17.0518 2.12814 19.0288 3.90283 20.4598 5.86683C19.2438 8.06453 17.6018 9.78583 15.5908 10.9678C12.6648 12.697 10.3848 14.9534 9.01177 17.5134C7.53877 20.2464 7.18578 23.1864 8.01478 26.0064C8.46078 27.4364 9.13078 28.7874 10.0048 30.0524C9.99378 30.0894 9.97178 30.1064 9.96078 30.1244ZM17.5258 30.2944C17.5258 30.3034 17.5148 30.3024 17.5148 30.3124C16.7478 31.8694 16.4348 33.4924 16.5308 35.3804C14.0178 33.8324 12.0518 32.0574 10.6208 30.0664C11.2248 29.1364 11.9888 28.2014 12.9228 27.2794C13.6918 26.5824 14.5228 25.9514 15.3648 25.3474C15.4218 25.6324 15.4898 25.9174 15.5788 26.1944C16.0248 27.6234 16.6958 28.9754 17.5698 30.2404C17.5478 30.2574 17.5368 30.2754 17.5258 30.2944ZM25.0798 30.4624C25.0798 30.4724 25.0688 30.4714 25.0688 30.4814C24.3018 32.0384 23.9898 33.6614 24.0848 35.5494C21.5718 34.0014 19.6058 32.2264 18.1748 30.2354C18.7788 29.3054 19.5428 28.3704 20.4768 27.4484C21.2458 26.7514 22.0778 26.1194 22.9188 25.5164C22.9758 25.8014 23.0438 26.0864 23.1338 26.3634C23.5788 27.7924 24.2498 29.1444 25.1238 30.4084C25.1018 30.4264 25.0908 30.4444 25.0798 30.4624ZM44.7368 18.2394C44.6158 18.4384 44.4948 18.6274 44.3838 18.8264C43.6448 20.0554 42.8838 21.3294 41.8428 22.3314C40.8138 23.2694 39.6588 24.0864 38.5478 24.8764C37.4268 25.6754 36.2508 26.5094 35.1998 27.4574C35.1998 27.4574 35.1998 27.4664 35.1888 27.4654C34.1358 28.5044 33.2738 29.5654 32.6348 30.6224C32.6338 30.6314 32.6238 30.6314 32.6238 30.6404C31.8558 32.1984 31.5438 33.8214 31.6398 35.7094C29.1268 34.1604 27.1598 32.3864 25.7288 30.3954C26.3338 29.4654 27.0978 28.5304 28.0308 27.6084C29.0608 26.6784 30.2148 25.8534 31.3258 25.0634C32.4478 24.2644 33.6228 23.4294 34.6738 22.4734C35.7698 21.4174 36.5528 20.1254 37.3028 18.8694C37.4238 18.6714 37.5448 18.4724 37.6658 18.2734C37.6668 18.2644 37.6768 18.2644 37.6768 18.2554C38.8228 15.9094 38.9588 13.1657 38.0778 9.84984C38.0778 9.84074 38.0778 9.84073 38.0778 9.83153C37.6388 8.56733 37.0088 7.33544 36.1848 6.17254C36.4178 5.72914 36.6508 5.26733 36.8528 4.78653C36.9088 4.66883 36.9538 4.55073 36.9758 4.52383C36.9868 4.50573 36.9978 4.47853 36.9988 4.45103C37.2028 3.38433 37.4078 2.29024 37.3368 1.18074C41.1808 3.50074 43.9338 6.65714 45.1308 10.1174C45.9708 13.3866 45.8598 15.9664 44.7368 18.2394Z" fill="#A0FDBE"/>
</svg>
