<svg width="46" height="36" viewBox="0 0 46 36" fill="none" xmlns="http://www.w3.org/2000/svg">
<path d="M45.973 17.895L36.204 0.129974C36.164 0.0562744 36.076 0.000976562 35.987 0.000976562C35.899 0.000976562 35.81 0.0470744 35.771 0.129974L31.658 7.61198L27.546 0.129974C27.507 0.0562744 27.418 0.000976562 27.33 0.000976562C27.241 0.000976562 27.153 0.0470744 27.113 0.129974L23.001 7.61198L18.889 0.129974C18.849 0.0562744 18.761 0.000976562 18.672 0.000976562C18.584 0.000976562 18.495 0.0470744 18.456 0.129974L14.344 7.61198L10.231 0.129974C10.192 0.0562744 10.104 0.000976562 10.015 0.000976562C9.926 0.000976562 9.838 0.0470744 9.799 0.129974L0.03 17.895C-0.01 17.96 -0.01 18.042 0.03 18.107L9.789 35.872C9.828 35.946 9.91701 36.001 10.005 36.001C10.094 36.001 10.182 35.955 10.222 35.872L14.334 28.39L18.446 35.872C18.485 35.946 18.574 36.001 18.663 36.001C18.751 36.001 18.84 35.955 18.879 35.872L22.991 28.39L27.103 35.872C27.143 35.946 27.231 36.001 27.32 36.001C27.408 36.001 27.497 35.955 27.536 35.872L31.649 28.39L35.761 35.872C35.8 35.946 35.889 36.001 35.977 36.001C36.066 36.001 36.154 35.955 36.194 35.872L45.953 18.107C46.012 18.033 46.012 17.96 45.973 17.895ZM27.33 0.738075L31.383 8.10947L27.33 15.481L23.277 8.10947L27.33 0.738075ZM17.344 18.098L18.387 20.005L14.334 27.376L9.189 17.996L14.344 8.61628L18.397 15.988L17.354 17.895C17.315 17.96 17.315 18.033 17.344 18.098ZM17.846 17.996L18.672 16.485L19.499 17.996L18.672 19.508L17.846 17.996ZM19.991 18.098C20.03 18.033 20.03 17.95 19.991 17.886L18.948 15.978L23.001 8.60708L27.054 15.978L26.011 17.886C25.972 17.95 25.972 18.033 26.011 18.098L27.054 20.005L23.001 27.376L18.948 20.005L19.991 18.098ZM26.503 17.996L27.33 16.485L28.156 17.996L27.33 19.508L26.503 17.996ZM28.658 18.098C28.697 18.033 28.697 17.95 28.658 17.886L27.615 15.978L31.668 8.60708L36.813 17.996L31.658 27.376L27.605 20.005L28.658 18.098ZM18.672 0.738075L22.726 8.10947L18.672 15.481L14.619 8.10947L18.672 0.738075ZM10.015 35.255L0.531007 17.996L10.015 0.738075L14.068 8.10947L8.69701 17.886C8.65701 17.95 8.65701 18.033 8.69701 18.098L14.068 27.874L10.015 35.255ZM18.672 35.255L14.619 27.883L18.672 20.512L22.726 27.883L18.672 35.255ZM27.33 35.255L23.277 27.883L27.33 20.512L31.383 27.883L27.33 35.255ZM35.987 35.255L31.934 27.883L37.305 18.107C37.345 18.042 37.345 17.96 37.305 17.895L31.934 8.11868L35.987 0.747375L45.471 17.996L35.987 35.255Z" fill="#A0FDBE"/>
</svg>
